HIERARCHY
ROOT Hips
{
	OFFSET -14.64140 90.27770 -84.91600
	CHANNELS 6 Xposition Yposition Zposition Zrotation Xrotation Yrotation
	JOINT Spine
	{
		OFFSET 0.00000 13.20850 -1.60436
		CHANNELS 3 Zrotation Xrotation Yrotation
		JOINT Spine1
		{
			OFFSET 0.00000 8.61716 0.00000
			CHANNELS 3 Zrotation Xrotation Yrotation
			JOINT Spine2
			{
				OFFSET 0.00000 8.61717 0.00000
				CHANNELS 3 Zrotation Xrotation Yrotation
				JOINT Spine3
				{
					OFFSET 0.00000 8.61717 0.00000
					CHANNELS 3 Zrotation Xrotation Yrotation
					JOINT Neck
					{
						OFFSET 0.00000 11.07920 1.10792
						CHANNELS 3 Zrotation Xrotation Yrotation
						JOINT Neck1
						{
							OFFSET 0.00000 7.08032 0.00000
							CHANNELS 3 Zrotation Xrotation Yrotation
							JOINT Head
							{
								OFFSET 0.00000 7.08031 0.00000
								CHANNELS 3 Zrotation Xrotation Yrotation
								End site
								{
									OFFSET 0.00000 0.00000 0.00000
								}
							}
						}
					}
					JOINT RightShoulder
					{
						OFFSET -0.01000 7.91373 5.19711
						CHANNELS 3 Zrotation Xrotation Yrotation
						JOINT RightArm
						{
							OFFSET -18.41580 0.00000 0.00000
							CHANNELS 3 Zrotation Xrotation Yrotation
							JOINT RightForeArm
							{
								OFFSET -29.11090 0.00000 0.00000
								CHANNELS 3 Zrotation Xrotation Yrotation
								JOINT RightHand
								{
									OFFSET -24.65040 0.00000 0.00000
									CHANNELS 3 Zrotation Xrotation Yrotation
									JOINT RightHandThumb1
									{
										OFFSET -5.35114 -0.85590 3.97906
										CHANNELS 3 Zrotation Xrotation Yrotation
										JOINT RightHandThumb2
										{
											OFFSET -4.52789 0.00000 0.00000
											CHANNELS 3 Zrotation Xrotation Yrotation
											JOINT RightHandThumb3
											{
												OFFSET -2.46976 0.00000 0.00000
												CHANNELS 3 Zrotation Xrotation Yrotation
												End site
												{
													OFFSET 0.00000 0.00000 0.00000
												}
											}
										}
									}
									JOINT RightHandIndex1
									{
										OFFSET -14.26970 0.00000 2.88139
										CHANNELS 3 Zrotation Xrotation Yrotation
										JOINT RightHandIndex2
										{
											OFFSET -5.48836 0.00000 0.00000
											CHANNELS 3 Zrotation Xrotation Yrotation
											JOINT RightHandIndex3
											{
												OFFSET -3.01859 0.00000 0.00000
												CHANNELS 3 Zrotation Xrotation Yrotation
												End site
												{
													OFFSET 0.00000 0.00000 0.00000
												}
											}
										}
									}
									JOINT RightHandMiddle1
									{
										OFFSET -14.26970 0.00000 -0.09147
										CHANNELS 3 Zrotation Xrotation Yrotation
										JOINT RightHandMiddle2
										{
											OFFSET -6.17441 0.00000 0.00000
											CHANNELS 3 Zrotation Xrotation Yrotation
											JOINT RightHandMiddle3
											{
												OFFSET -3.56743 0.00000 0.00000
												CHANNELS 3 Zrotation Xrotation Yrotation
												End site
												{
													OFFSET 0.00000 0.00000 0.00000
												}
											}
										}
									}
									JOINT RightHandRing1
									{
										OFFSET -12.69180 0.00000 -3.06433
										CHANNELS 3 Zrotation Xrotation Yrotation
										JOINT RightHandRing2
										{
											OFFSET -5.62556 0.00000 0.00000
											CHANNELS 3 Zrotation Xrotation Yrotation
											JOINT RightHandRing3
											{
												OFFSET -3.56744 0.00000 0.00000
												CHANNELS 3 Zrotation Xrotation Yrotation
												End site
												{
													OFFSET 0.00000 0.00000 0.00000
												}
											}
										}
									}
									JOINT RightHandPinky1
									{
										OFFSET -11.11390 0.00000 -6.03719
										CHANNELS 3 Zrotation Xrotation Yrotation
										JOINT RightHandPinky2
										{
											OFFSET -4.52789 0.00000 0.00000
											CHANNELS 3 Zrotation Xrotation Yrotation
											JOINT RightHandPinky3
											{
												OFFSET -2.46976 0.00000 0.00000
												CHANNELS 3 Zrotation Xrotation Yrotation
												End site
												{
													OFFSET 0.00000 0.00000 0.00000
												}
											}
										}
									}
								}
							}
						}
					}
					JOINT LeftShoulder
					{
						OFFSET 0.01000 7.91373 5.19711
						CHANNELS 3 Zrotation Xrotation Yrotation
						JOINT LeftArm
						{
							OFFSET 18.41580 0.00000 0.00000
							CHANNELS 3 Zrotation Xrotation Yrotation
							JOINT LeftForeArm
							{
								OFFSET 29.11090 0.00000 0.00000
								CHANNELS 3 Zrotation Xrotation Yrotation
								JOINT LeftHand
								{
									OFFSET 24.65040 0.00000 0.00000
									CHANNELS 3 Zrotation Xrotation Yrotation
									JOINT LeftHandThumb1
									{
										OFFSET 5.35114 -0.85590 3.97906
										CHANNELS 3 Zrotation Xrotation Yrotation
										JOINT LeftHandThumb2
										{
											OFFSET 4.52789 0.00000 0.00000
											CHANNELS 3 Zrotation Xrotation Yrotation
											JOINT LeftHandThumb3
											{
												OFFSET 2.46977 0.00000 0.00000
												CHANNELS 3 Zrotation Xrotation Yrotation
												End site
												{
													OFFSET 0.00000 0.00000 0.00000
												}
											}
										}
									}
									JOINT LeftHandIndex1
									{
										OFFSET 14.26970 0.00000 2.88139
										CHANNELS 3 Zrotation Xrotation Yrotation
										JOINT LeftHandIndex2
										{
											OFFSET 5.48836 0.00000 0.00000
											CHANNELS 3 Zrotation Xrotation Yrotation
											JOINT LeftHandIndex3
											{
												OFFSET 3.01859 0.00000 0.00000
												CHANNELS 3 Zrotation Xrotation Yrotation
												End site
												{
													OFFSET 0.00000 0.00000 0.00000
												}
											}
										}
									}
									JOINT LeftHandMiddle1
									{
										OFFSET 14.26970 0.00000 -0.09147
										CHANNELS 3 Zrotation Xrotation Yrotation
										JOINT LeftHandMiddle2
										{
											OFFSET 6.17440 0.00000 0.00000
											CHANNELS 3 Zrotation Xrotation Yrotation
											JOINT LeftHandMiddle3
											{
												OFFSET 3.56744 0.00000 0.00000
												CHANNELS 3 Zrotation Xrotation Yrotation
												End site
												{
													OFFSET 0.00000 0.00000 0.00000
												}
											}
										}
									}
									JOINT LeftHandRing1
									{
										OFFSET 12.69180 0.00000 -3.06433
										CHANNELS 3 Zrotation Xrotation Yrotation
										JOINT LeftHandRing2
										{
											OFFSET 5.62556 0.00000 0.00000
											CHANNELS 3 Zrotation Xrotation Yrotation
											JOINT LeftHandRing3
											{
												OFFSET 3.56744 0.00000 0.00000
												CHANNELS 3 Zrotation Xrotation Yrotation
												End site
												{
													OFFSET 0.00000 0.00000 0.00000
												}
											}
										}
									}
									JOINT LeftHandPinky1
									{
										OFFSET 11.11390 0.00000 -6.03719
										CHANNELS 3 Zrotation Xrotation Yrotation
										JOINT LeftHandPinky2
										{
											OFFSET 4.52789 0.00000 0.00000
											CHANNELS 3 Zrotation Xrotation Yrotation
											JOINT LeftHandPinky3
											{
												OFFSET 2.46976 0.00000 0.00000
												CHANNELS 3 Zrotation Xrotation Yrotation
												End site
												{
													OFFSET 0.00000 0.00000 0.00000
												}
											}
										}
									}
								}
							}
						}
					}
					JOINT pCube4
					{
						OFFSET 0.00000 10.91090 1.10792
						CHANNELS 3 Zrotation Xrotation Yrotation
						End site
						{
							OFFSET 0.00000 0.00000 0.00000
						}
					}
				}
			}
		}
	}
	JOINT RightUpLeg
	{
		OFFSET -9.98441 0.00000 0.00000
		CHANNELS 3 Zrotation Xrotation Yrotation
		JOINT RightLeg
		{
			OFFSET 0.00000 -42.11790 0.00000
			CHANNELS 3 Zrotation Xrotation Yrotation
			JOINT RightFoot
			{
				OFFSET 0.00000 -45.00020 -0.00001
				CHANNELS 3 Zrotation Xrotation Yrotation
				JOINT RightForeFoot
				{
					OFFSET 0.00000 -3.74820 0.00000
					CHANNELS 3 Zrotation Xrotation Yrotation
					JOINT RightToeBase
					{
						OFFSET 0.00000 0.06325 14.43120
						CHANNELS 3 Zrotation Xrotation Yrotation
						End site
						{
							OFFSET 0.00000 0.00000 0.00000
						}
					}
				}
			}
		}
	}
	JOINT LeftUpLeg
	{
		OFFSET 9.98441 0.00000 0.00000
		CHANNELS 3 Zrotation Xrotation Yrotation
		JOINT LeftLeg
		{
			OFFSET 0.00000 -42.11800 0.00000
			CHANNELS 3 Zrotation Xrotation Yrotation
			JOINT LeftFoot
			{
				OFFSET 0.00000 -45.00070 0.00000
				CHANNELS 3 Zrotation Xrotation Yrotation
				JOINT LeftForeFoot
				{
					OFFSET 0.00000 -3.74824 0.00000
					CHANNELS 3 Zrotation Xrotation Yrotation
					JOINT LeftToeBase
					{
						OFFSET 0.00000 0.06325 14.43110
						CHANNELS 3 Zrotation Xrotation Yrotation
						End site
						{
							OFFSET 0.00000 0.00000 0.00000
						}
					}
				}
			}
		}
	}
}
MOTION
Frames: 4
Frame Time: 0.050000
-0.002830085543964132 -0.029916220083634665 -0.026073315195949173 0.01290055563752461 0.047395711860770365 0.043124291192423767 -2.428095198715494 -0.15772991810320605 -0.9313417536953811 -0.9258365747269673 3.70982904103864 0.31703794951887465 -1.3584350883607417 -2.178869275226513 -1.2693387834909466 0.8437680928766608 0.1334459034451775 -0.9012977497089161 1.2464771904061906 14.615433072964962 -3.5535949628852737 0.44553381773823275 1.2739289351027412 -9.381260448391759 1.5992848107349305 -13.153685984823099 -0.6945835912552911 -7.440135972767213 2.3283072432408867 -15.633004864446205 68.34422320817902 -2.1088210563996226 13.214488758957572 22.466382700097125 3.0601433137526834 98.37780443146809 11.024452235180503 -0.3399277470228686 -1.9994275576146576 4.5527007666187576 -0.15695163567993498 -1.6086151784164504 -0.014562585279125125 0.030837327994361743 -56.19144051603919 0.03970021913602575 -0.008041128034410384 -56.19375140365585 -38.729378449464605 -0.018334013415775115 0.03210577194732357 -0.04003489878797693 0.03277383807951365 0.02589626587717765 -0.03578229153831675 0.042524991869796226 0.00931320951321669 -36.7206195890754 -0.004771407197650391 0.011119982123363499 -0.04848050624957861 0.019409461235354225 -3.488603962937719e-05 -0.032037730947267695 0.0165008743454319 -0.026946032665478112 -19.780638015673144 -0.017937580526274057 -0.00419181965322876 0.04053139847397345 -0.012303484535313056 0.008994064344716817 0.048648822528018255 0.025658351364664576 -0.03272575714953369 24.054617222288588 -0.015495571691841724 -0.01302717771951864 28.8591019557147 -0.04099155367940619 -0.04425174314308218 28.873176622093755 -0.0021312145572783274 -0.04122254154174763 7.239608295971281 1.764186821024553 13.204631362545971 -68.42612405750069 15.158631727327123 -12.565216422707215 -22.49306684884139 1.9852339874417153 -100.61574892700806 -1.8972885338236254 -1.7582005927832158 -1.8270930883567131 -0.5176430870647436 0.07022825898967106 -8.11654833477072 -0.014226514045120583 0.009178958714746515 44.599367131127444 0.020746445386041285 0.03282085772494474 44.524993491010896 12.50716193717941 -0.030801538355940187 0.021130553936748304 0.023624125300616455 0.04730639368299229 -0.039382306330201525 -0.020764572037413092 -0.04117180527580145 -0.04441616229904171 11.093846776155239 -0.043650425270660057 -0.031943250967943745 -0.0002919959874069729 0.022015374060629506 0.04279011126059308 -0.0022531984939072307 -0.024049792761340914 0.007880150065903648 4.761018049402069 0.02140995127540431 -0.02622519841439281 0.013707433479606988 -0.022132929376828505 -0.015602066302768598 -0.029362230850108386 0.0026814161954005662 -0.0036591462152795974 -5.567585135554854 -0.02539033673286493 -0.04717731383605093 -6.690891631813129 -0.0023687697941060346 0.006772274315804069 -6.713246495243853 0.004469864202172984 0.04536790489463215 0.004646366959700591 0.03673387740075439 -0.04237396584963943 8.047551038976765 3.4756955715016673 -19.198199941563228 -0.03554784675324862 10.383427545888102 0.056460463830433266 -5.611629160768761 -15.664785595308883 3.182727459169936 0.029534636212812253 -0.02644941942856164 0.029645102285656384 0.04650293944258751 4.682991196643996 0.015327453928398975 12.508411569340478 -8.257635635491999 6.848640245484668 0.020098972904080487 46.421323050353585 -0.005685080488214263 -4.281060676741951 -14.754204816797266 -3.8447191165894115 -0.01976649994185983 0.011026675261859804 0.023531107855155338 0.01405261032737679 -10.761150752520493 -0.015918732103970337 
-0.00038910223531857236 0.018357982090322522 0.023760966529300362 -0.009607502366923783 -0.020923182510897892 -0.016011073853386525 -2.584384130941745 -0.13322617190697517 -0.8893061669679273 -0.9783883832238054 3.678258091682063 0.41429755895146336 -1.3807167592140392 -2.186269546203173 -1.303394916998233 0.7554540203683615 0.1493458584640961 -0.8455600376414263 1.2235225777920493 14.695222530591503 -3.3993956727002406 0.4430206769419886 1.348251880039442 -8.95794367754828 1.59300697067388 -12.984085597055614 -0.6991165246766159 -7.509889584766817 2.427408785814949 -15.49668425782161 67.86118527928758 -2.293311478862253 15.155661585426229 21.963039529291585 2.9274415511240846 98.06957054367378 11.588533437791734 -0.36175553237391095 -2.154511780094702 4.5690880943070855 -0.16257588508858625 -1.6252314375664294 -0.0165303881849917 0.008292371881771355 -56.23303926475182 -0.028010781418638775 0.007059025815382418 -56.199856426859235 -38.79082037743151 -0.025541651483958084 -0.025023150513118493 -0.029416763043442415 -0.014179239514210224 0.0046973808073981485 0.02787505004338095 0.0158015746820139 0.005641005947113211 -36.64484816983763 -0.03279443518021407 -0.03976571339527922 0.03622963144398341 0.01802152760087862 0.0105506575245316 -0.019600160801003914 0.02255127084976798 -0.024665396683719944 -19.73955707062583 -0.0018746443116910642 0.014891824251073996 -0.018744130602173597 -0.029594585330747877 0.04310924790635186 -0.03501754854335574 -0.034999011972945214 -0.045226362381380454 24.03509209499186 0.028280085976763035 -0.030895105321988185 28.829216352513424 -0.03336990099215714 -0.009806400100300606 28.857252308511004 -0.015361296105211539 -0.028436693955057216 7.269409899070031 1.7389992577233533 13.055393664329204 -68.04231099145731 15.646413237766744 -13.670395208485301 -21.43645717640306 1.3092880705201784 -99.90459730652374 -2.5388872659145667 -1.882479221479586 -1.433057048469415 -0.498472150300259 0.10641558035458178 -8.12075501686658 0.048123176236562884 -0.013816409507039162 44.61618449607008 -0.00936320821157908 -0.024664899037067967 44.52822473165311 12.445205147921989 -0.029556211034466595 -0.012827213208542616 -0.017936738194067502 0.04565877681473029 0.005377615423944713 0.02851784809282943 -0.020512855791825373 -0.004794068603595509 11.100183283219828 -0.003407272780366503 0.04508802095529774 -0.04730760130926963 0.04365417284784108 0.005475036019804574 -0.025853998991891215 0.01144287450259859 -0.025349139637828456 4.804124618413965 -0.014039628102295242 0.033897406292447745 -0.04297782074726001 0.01687230359149814 0.0158572340545586 0.0027133970251046174 -0.011033318391481856 -0.016588692964189515 -5.65026390503629 -0.024798928170202017 -0.04423312726815379 -6.74639578818512 -0.04248841181964946 0.04276023416876755 -6.6797553107900995 0.043665367191539094 -0.014513100561728305 0.04850811297946139 0.02467768448569362 0.0036540713410893075 8.077401308378334 3.5109707688960006 -19.1902109292648 -0.04105401829739122 10.415638137624637 0.006542052414031995 -5.647506716965791 -15.670265518130725 3.1689077176441542 -0.012254844494648094 -0.02830999360613535 -0.046973288043519655 -0.016359437907990406 4.6610049147237635 0.004383072954518522 12.417798748075871 -8.242371851705789 6.8675461247662275 -0.031672486271537625 46.33951653777968 -0.009519169068851512 -4.304604543818229 -14.698572154667922 -3.86486782093606 -0.0338841026021304 -0.019138319745457304 0.012347856222158024 -0.008656875567881068 -10.71171799927109 0.011966089723061964 
0.01160058126538206 0.009965658637064 -0.03152374428031413 -0.013492159565168164 -0.0059507461112707 -0.009766195553586711 -2.6332654031045832 -0.1749459451879627 -0.8707766833396021 -0.9107610359586846 3.7046877215318017 0.3461158662842124 -1.4195373912472498 -2.165666083425019 -1.2407259903654346 0.690105118661211 0.1370365749080856 -0.8312761466755074 1.171091225251123 14.746669739761655 -3.1725565287848196 0.48569240877940284 1.4472003747511064 -8.552155361033094 1.4898848579151667 -12.66074826876044 -0.6182890860683812 -7.604178736307643 2.386428328929485 -15.266061849877063 67.89491243168055 -1.7410149525705951 17.024571086840016 21.42571271477378 3.0482563779990954 97.6622072461498 12.297269204380052 -0.40784442309373203 -2.459351546848263 4.547003820394879 -0.1740250507224551 -1.5836823947826886 -0.019748423577810384 -0.014008957467437699 -56.2481254751478 0.04055913683075716 0.01654520564883533 -56.21220836706245 -38.78652003965071 -0.04005484679698208 0.048462098167271976 -0.027589207008875297 -0.011013887233476188 0.03419023924719822 -0.0014902681637250534 -0.029624188555857536 -0.01707703365342162 -36.653911834234634 0.028932651683543194 0.01698918420650475 0.01465777119497454 -0.0007517369658763245 0.01142313902061605 -0.02309444720659839 -0.009291666800495231 -0.022871026137373494 -19.78746769923307 0.0016046876028931677 0.044079498509278496 0.0010994019419811724 -0.02871615881698927 -0.016212391846127334 -0.0280334206903098 0.037641105116016524 -0.043456553702067295 24.096240120439905 0.0365810322897531 0.03929001756515876 28.909336419811716 -0.03369846514355751 -0.018950277902243105 28.908013030425813 0.01227496816970526 -0.03929877489946083 7.4723465753921365 1.7964071245985402 12.909370891076723 -67.93165236551481 16.2996151682487 -14.858775110395968 -21.58958062713242 1.475111129116717 -99.4475740697116 -3.4380362557405895 -2.1877661191158992 -1.1069691862813078 -0.46698409474166047 0.02248528234182734 -8.132381241887238 -0.0036778438654768717 -0.03184220240718605 44.583586081464965 -0.008007576715708646 0.04619551374217135 44.52637635388722 12.471065675206253 0.034816033820830684 0.018158117854135496 0.0016146745711029381 0.038267217430370905 -0.04566865935002247 0.042954657260033294 0.027654101352725526 -0.026279816143198065 11.098704557882185 0.025006821932983245 0.006156186697660941 -0.020309803596374704 -0.01874415307929438 -0.00879314073259613 -0.009265635464478606 0.022941124657931446 0.009403999961648224 4.798250795193717 -0.00045265120393039486 0.015532650768348349 -0.0216159242921081 -0.04871274768454012 -0.03613204042444893 0.029294579599505235 -0.04146559906429919 0.04608669093442376 -5.583559992361649 0.0026814956084031927 0.0001633722987316784 -6.713640760925357 -0.03146936804944997 0.02835401053431518 -6.757075950524601 -0.02765975621293491 0.034825408277619194 -0.012481210176977413 0.03825625079662866 -0.027654717633066775 8.08434326860765 3.4618467148940066 -19.203347167956935 -0.015823809717357164 10.349868133177502 0.00634370981134468 -5.620410616245693 -15.649067904863314 3.2333980078840248 0.045295075803315855 -0.016898275426858254 -0.033765975389605664 0.0452049719441957 4.72918773957358 0.007953252141577966 12.46318403819558 -8.25070275175576 6.923567106780596 0.009744376983502284 46.41423019946741 0.0167048471559677 -4.358905316812109 -14.775338547128435 -3.8307885818602094 0.021313891245606148 -0.04984553556826755 -0.0225991506824859 0.01801786666711956 -10.703715694084323 0.019737886984775133 
-0.029883891324634666 0.01643182594042999 -0.015105050296287115 -0.048521791574747924 -0.03921794008594033 -0.03281285287516451 -2.714846781951933 -0.21709992895196192 -0.8572239870600958 -0.9678829520222176 3.636313479631085 0.35711509430688876 -1.3612902997022105 -2.223179563735809 -1.183353587370253 0.5430800561180267 0.11946722360839106 -0.834130063453188 1.119231793925796 14.92608701760071 -2.922322075621892 0.5129081022567774 1.6191425737962528 -7.872018572132761 1.4537231217558666 -12.489725760535288 -0.6100449310915956 -7.713380208015782 2.4457930975569635 -15.02170577566093 68.51409408457924 -1.047197252700181 18.599914915607105 21.717103439455897 3.241732189036123 97.1346402350086 12.950390596688347 -0.41220798551809645 -2.7941958763687222 4.576391580894412 -0.16685293562154901 -1.5687008123783304 0.041671168577755845 0.015433130429473411 -56.28182017534593 0.027487181889874982 0.023584400544879303 -56.232679212087966 -38.73281707873459 -0.015332450270466652 0.0068155239575504265 -0.009153722193655676 0.033670426903519554 -0.04131903281459514 0.03454264431212388 0.004765562527066824 -0.04967831962469599 -36.664284437038724 0.002209688419594185 -0.011483886869399374 -0.0326078731738015 0.04310204815789086 0.03702499200858216 -0.030498108535121863 -0.0441427350446454 -0.03214251330394153 -19.79607748924253 -0.02078182894854333 0.0425616462761736 0.0010976500271104104 -0.024291385592904242 0.03584781706497975 -0.03142515247412227 0.010424551245529212 0.03908525676370828 24.05844689362778 0.03819398120627612 0.04514592505325306 28.85678802469799 -0.02263937180315593 -0.03837342663649559 28.825216099884358 -0.02536108505794026 -0.004195530360679737 7.690806550440352 1.8412171424387873 12.747471815392021 -68.08211995244716 16.19317456280467 -16.281409929043996 -23.100859864063032 2.3570918330757267 -99.21309069068433 -4.205162047540796 -2.355837118375515 -0.8298683690058302 -0.4735973041328042 0.05833416296275477 -8.162657404024992 0.014686635935387196 0.04770320916675021 44.559627144805184 -0.031941666836060256 -0.00464096988384146 44.56101491505109 12.476697823111838 -0.03173319406595213 -0.029899812604749033 0.019307187836689117 0.002416124276407743 0.01585647949952417 0.03715806087434076 -0.025553815252109834 -0.041419105933220395 11.132151139110572 -0.029144803919047894 -0.015016744808523092 -0.025853167188929712 -0.044237246205133154 0.0179745276564548 -0.024299353125902753 -0.0015371022051353634 0.03558085825081255 4.8034546712439115 0.02793634802272141 -0.016862724864240713 -0.03775964964604364 0.014477941309028672 -0.03865818881976367 0.048148876967378046 0.021040595475322884 0.007610368108297053 -5.574290077312397 0.019707571348377938 -0.04375859783057399 -6.729776175504416 0.010232369892270702 -0.0003439798172865079 -6.761995975571422 -0.04352897774761621 -0.027173367084824044 0.005136653091123061 0.01609386935796657 -0.00943648425837282 8.044887766547948 3.498793366850614 -19.26117934831274 0.020220664098497758 10.373387789714965 0.012356382175046348 -5.640455283171275 -15.620721312258617 3.2313692513143617 -0.03603827308205888 -0.0013286504309057432 0.005148578681766798 0.015275656511216526 4.690933145158339 -0.03780062286332586 12.47465679323765 -8.287244350528544 6.859609590179604 -0.004273794146889794 46.418141339133605 0.011835036495580315 -4.3273048147708035 -14.790670146202121 -3.805907785516276 -0.030026583668394235 -0.03609856649090038 -0.0006052563154528793 -0.008855624699988044 -10.729367981689203 -0.04126545563189157 
